<?xml version="1.0" encoding="UTF-8" standalone="no" ?>
<!DOCTYPE svg PUBLIC "-//W3C//DTD SVG 1.1//EN" "http://www.w3.org/Graphics/SVG/1.1/DTD/svg11.dtd">
<svg xmlns="http://www.w3.org/2000/svg" xmlns:xlink="http://www.w3.org/1999/xlink" version="1.1" width="1080" height="1080" viewBox="0 0 1080 1080" xml:space="preserve">
<desc>Created with Fabric.js 5.2.4</desc>
<defs>
</defs>
<rect x="0" y="0" width="100%" height="100%" fill="transparent"></rect>
<g transform="matrix(1 0 0 1 540 540)" id="8fefbd39-1de1-4ad2-a88a-bb13f86304b8"  >
<rect style="stroke: none; stroke-width: 1; stroke-dasharray: none; stroke-linecap: butt; stroke-dashoffset: 0; stroke-linejoin: miter; stroke-miterlimit: 4; fill: rgb(255,255,255); fill-rule: nonzero; opacity: 1; visibility: hidden;" vector-effect="non-scaling-stroke"  x="-540" y="-540" rx="0" ry="0" width="1080" height="1080" />
</g>
<g transform="matrix(1 0 0 1 540 540)" id="e1e1a406-602e-414d-9565-7c73ffc843e2"  >
</g>
<g transform="matrix(44.05 0 0 44.05 536.42 543.58)" id="a4b42609-e528-4991-9178-9db751081b31"  >
<path style="stroke: rgb(0,0,0); stroke-width: 0; stroke-dasharray: none; stroke-linecap: butt; stroke-dashoffset: 0; stroke-linejoin: miter; stroke-miterlimit: 4; fill: rgb(255,255,255); fill-rule: nonzero; opacity: 1;" vector-effect="non-scaling-stroke"  transform=" translate(-12, -12)" d="M 15.233 5.488 C 14.39 5.45 14.136000000000001 5.442 12 5.442 C 9.863999999999999 5.442 9.611 5.45 8.768 5.488 C 6.598000000000001 5.587000000000001 5.587000000000001 6.615 5.489000000000001 8.767 C 5.450000000000001 9.610999999999999 5.441000000000001 9.863999999999999 5.441000000000001 12 C 5.441000000000001 14.136000000000001 5.450000000000001 14.389 5.488 15.233 C 5.587000000000001 17.381 6.594 18.413 8.767 18.512 C 9.61 18.55 9.863999999999999 18.559 12 18.559 C 14.137 18.559 14.39 18.551000000000002 15.233 18.513 C 17.403 18.414 18.413 17.384 18.512 15.234000000000002 C 18.55 14.390000000000002 18.558 14.137000000000002 18.558 12.001000000000001 C 18.558 9.865 18.55 9.612000000000002 18.512 8.769000000000002 C 18.413 6.616000000000001 17.401 5.5870000000000015 15.233 5.488000000000001 z M 12 16.108 C 9.731 16.108 7.892 14.269 7.892 12 C 7.892 9.731 9.732000000000001 7.892 12 7.892 C 14.267999999999999 7.892 16.108 9.731 16.108 12 C 16.108 14.269 14.269 16.108 12 16.108 z M 16.271 8.690000000000001 C 15.741000000000001 8.690000000000001 15.311 8.260000000000002 15.311 7.730000000000001 C 15.311 7.200000000000001 15.741 6.770000000000001 16.271 6.770000000000001 C 16.801000000000002 6.770000000000001 17.231 7.200000000000001 17.231 7.730000000000001 C 17.231 8.260000000000002 16.801000000000002 8.690000000000001 16.271 8.690000000000001 z M 14.667000000000002 12.000000000000002 C 14.667000000000002 13.473000000000003 13.473000000000003 14.667000000000002 12.000000000000002 14.667000000000002 C 10.527000000000001 14.667000000000002 9.333000000000002 13.473000000000003 9.333000000000002 12.000000000000002 C 9.333000000000002 10.527000000000001 10.527000000000001 9.333000000000002 12.000000000000002 9.333000000000002 C 13.473000000000003 9.333000000000002 14.667000000000002 10.527000000000001 14.667000000000002 12.000000000000002 z M 19 1.7763568394002505e-15 L 5 1.7763568394002505e-15 C 2.239 1.7763568394002505e-15 0 2.2390000000000017 0 5.000000000000002 L 0 19 C 0 21.761 2.239 24 5 24 L 19 24 C 21.762 24 24 21.761 24 19 L 24 5 C 24 2.239 21.762 0 19 0 z M 19.951999999999998 15.298000000000002 C 19.819999999999997 18.207 18.200999999999997 19.819000000000003 15.299 19.952 C 14.445 19.991000000000003 14.173 20 12 20 C 9.827 20 9.556000000000001 19.991 8.702 19.952 C 5.7940000000000005 19.819000000000003 4.182 18.204 4.048 15.298000000000002 C 4.009 14.445000000000002 4 14.173000000000002 4 12.000000000000002 C 4 9.828000000000001 4.009 9.555000000000001 4.048 8.702000000000002 C 4.182 5.794000000000002 5.796 4.181000000000002 8.702 4.049000000000002 C 9.556 4.009000000000002 9.827 4.000000000000002 12 4.000000000000002 C 14.173 4.000000000000002 14.445 4.009000000000002 15.299 4.048000000000002 C 18.207 4.181000000000002 19.822 5.799000000000001 19.951999999999998 8.701 C 19.991 9.555 19.999999999999996 9.828000000000001 19.999999999999996 12 C 19.999999999999996 14.173 19.990999999999996 14.445 19.951999999999998 15.298 z" stroke-linecap="round" />
</g>
</svg>