<?xml version="1.0" encoding="UTF-8" standalone="no" ?>
<!DOCTYPE svg PUBLIC "-//W3C//DTD SVG 1.1//EN" "http://www.w3.org/Graphics/SVG/1.1/DTD/svg11.dtd">
<svg xmlns="http://www.w3.org/2000/svg" xmlns:xlink="http://www.w3.org/1999/xlink" version="1.1" width="1080" height="512" viewBox="0 0 1080 512" xml:space="preserve">
<desc>Created with Fabric.js 5.2.4</desc>
<defs>
</defs>
<rect x="0" y="0" width="100%" height="100%" fill="transparent"></rect>
<g transform="matrix(1 0 0 1 540 256)" id="168f2511-75a5-434b-990c-7f32efb727e0"  >
<rect style="stroke: none; stroke-width: 1; stroke-dasharray: none; stroke-linecap: butt; stroke-dashoffset: 0; stroke-linejoin: miter; stroke-miterlimit: 4; fill: rgb(255,255,255); fill-rule: nonzero; opacity: 1; visibility: hidden;" vector-effect="non-scaling-stroke"  x="-540" y="-256" rx="0" ry="0" width="1080" height="512" />
</g>
<g transform="matrix(Infinity NaN NaN Infinity 0 0)" id="a1872c7e-e127-43ab-b47c-bb11e48c5718"  >
</g>
<g transform="matrix(2.54 0 0 2.54 506.04 256.34)"  >
<g style="" vector-effect="non-scaling-stroke"   >
		<g transform="matrix(1.33 0 0 1.33 39.14 63.97)" clip-path="url(#CLIPPATH_9)"  >
<clipPath id="CLIPPATH_9" >
	<path transform="matrix(1 0 0 1 -0.02 0.21) translate(-187.5, -232.52)" d="M 110 208.035156 L 265 208.035156 L 265 257 L 110 257 Z M 110 208.035156" stroke-linecap="round" />
</clipPath>
<path style="stroke: none; stroke-width: 1; stroke-dasharray: none; stroke-linecap: butt; stroke-dashoffset: 0; stroke-linejoin: miter; stroke-miterlimit: 4; fill: rgb(255,255,255); fill-rule: nonzero; opacity: 1;" vector-effect="non-scaling-stroke"  transform=" translate(-187.52, -232.31)" d="M 114.636719 256.160156 C 113.605469 256.160156 112.574219 255.78125 111.769531 255.019531 C 110.101562 253.433594 110.03125 250.796875 111.613281 249.128906 L 127.566406 232.308594 L 111.613281 215.488281 C 110.03125 213.820312 110.101562 211.183594 111.769531 209.597656 C 113.441406 208.015625 116.078125 208.085938 117.660156 209.753906 L 136.332031 229.441406 C 137.855469 231.050781 137.855469 233.570312 136.332031 235.175781 L 117.660156 254.863281 C 116.839844 255.726562 115.738281 256.160156 114.636719 256.160156 Z M 149.433594 254.863281 L 168.105469 235.175781 C 169.628906 233.570312 169.628906 231.050781 168.105469 229.441406 L 149.433594 209.753906 C 147.847656 208.085938 145.210938 208.015625 143.542969 209.597656 C 141.871094 211.183594 141.804688 213.820312 143.386719 215.488281 L 159.339844 232.308594 L 143.386719 249.128906 C 141.804688 250.796875 141.871094 253.433594 143.542969 255.019531 C 144.347656 255.78125 145.378906 256.160156 146.410156 256.160156 C 147.511719 256.160156 148.613281 255.726562 149.433594 254.863281 Z M 181.203125 254.863281 L 199.878906 235.175781 C 201.402344 233.570312 201.402344 231.050781 199.878906 229.441406 L 181.203125 209.753906 C 179.621094 208.085938 176.984375 208.015625 175.3125 209.597656 C 173.644531 211.183594 173.574219 213.820312 175.160156 215.488281 L 191.113281 232.308594 L 175.160156 249.128906 C 173.574219 250.796875 173.644531 253.433594 175.3125 255.019531 C 176.121094 255.78125 177.152344 256.160156 178.179688 256.160156 C 179.285156 256.160156 180.386719 255.726562 181.203125 254.863281 Z M 212.976562 254.863281 L 231.648438 235.175781 C 233.175781 233.570312 233.175781 231.050781 231.648438 229.441406 L 212.976562 209.753906 C 211.394531 208.085938 208.757812 208.015625 207.085938 209.597656 C 205.417969 211.183594 205.347656 213.820312 206.929688 215.488281 L 222.882812 232.308594 L 206.929688 249.128906 C 205.347656 250.796875 205.417969 253.433594 207.085938 255.019531 C 207.894531 255.78125 208.921875 256.160156 209.953125 256.160156 C 211.054688 256.160156 212.15625 255.726562 212.976562 254.863281 Z M 244.75 254.863281 L 263.421875 235.175781 C 264.945312 233.570312 264.945312 231.050781 263.421875 229.441406 L 244.75 209.753906 C 243.164062 208.085938 240.527344 208.015625 238.859375 209.597656 C 237.1875 211.183594 237.121094 213.820312 238.703125 215.488281 L 254.65625 232.308594 L 238.703125 249.128906 C 237.121094 250.796875 237.1875 253.433594 238.859375 255.019531 C 239.664062 255.78125 240.695312 256.160156 241.726562 256.160156 C 242.828125 256.160156 243.929688 255.726562 244.75 254.863281 Z M 244.75 254.863281" stroke-linecap="round" />
</g>
		<g transform="matrix(1.33 0 0 1.33 -140.28 -33.54)" clip-path="url(#CLIPPATH_10)"  >
<clipPath id="CLIPPATH_10" >
	<path transform="matrix(1 0 0 1 0.28 -0.22) translate(-53.14, -159)" d="M 12.28125 118 L 94 118 L 94 200 L 12.28125 200 Z M 12.28125 118" stroke-linecap="round" />
</clipPath>
<path style="stroke: none; stroke-width: 1; stroke-dasharray: none; stroke-linecap: butt; stroke-dashoffset: 0; stroke-linejoin: miter; stroke-miterlimit: 4; fill: rgb(255,255,255); fill-rule: nonzero; opacity: 1;" vector-effect="non-scaling-stroke"  transform=" translate(-52.86, -159.22)" d="M 12.480469 132.746094 L 15.816406 129.234375 C 17.777344 127.277344 21.066406 127.957031 21.066406 127.957031 L 30.839844 129.292969 L 35.789062 124.449219 C 38.394531 121.890625 40.75 125.808594 39.726562 127.160156 L 37.183594 130.113281 L 47.710938 132.0625 L 51.28125 127.898438 C 55.097656 123.332031 57.941406 127.445312 56.21875 129.863281 L 53.910156 132.785156 L 69.722656 134.847656 C 83.316406 121.765625 88.867188 116.335938 92.445312 119.5625 C 96.046875 122.804688 89.675781 129.273438 77.292969 142.03125 L 79.539062 158.324219 L 82.851562 155.5625 C 84.808594 153.933594 88.28125 156.546875 84.695312 159.945312 L 80.136719 164.242188 L 82.0625 174.90625 L 84.910156 172.71875 C 87.421875 170.714844 90.476562 173.363281 87.078125 176.996094 L 82.554688 181.554688 C 82.367188 181.691406 84.03125 190.90625 84.03125 190.90625 C 85.054688 195.421875 82.507812 197.070312 82.507812 197.070312 L 79.402344 199.78125 L 67.597656 166.445312 C 66.621094 163.511719 64.140625 160.328125 60 160.703125 C 57.8125 160.9375 52.285156 164.667969 51.539062 165.554688 L 38.742188 177.863281 C 38.414062 178.09375 40.710938 193.859375 40.710938 193.859375 C 40.710938 194.324219 36.652344 199.644531 36.652344 199.644531 L 28.542969 185.210938 L 24.539062 187.074219 L 26.882812 183.429688 L 12.28125 175.1875 L 17.757812 171.183594 C 20.363281 171.789062 34.03125 173.324219 34.3125 173.183594 C 34.3125 173.183594 45.445312 162.144531 46.082031 161.476562 C 49.757812 157.613281 50.996094 156.167969 51.554688 154.257812 C 52.113281 152.347656 51.160156 149.546875 45.386719 146.003906 C 37.425781 141.113281 12.480469 132.746094 12.480469 132.746094 Z M 12.480469 132.746094" stroke-linecap="round" />
</g>
		<g transform="matrix(1.33 0 0 1.33 -49.81 -73.13)"  >
<path style="stroke: none; stroke-width: 1; stroke-dasharray: none; stroke-linecap: butt; stroke-dashoffset: 0; stroke-linejoin: miter; stroke-miterlimit: 4; fill: rgb(255,255,255); fill-rule: nonzero; opacity: 1;" vector-effect="non-scaling-stroke"  transform=" translate(-15.87, 15.05)" d="M 9.859375 0 L 3.90625 0 L 3.90625 -30.109375 L 9.859375 -30.109375 L 9.859375 -17.8125 L 10.53125 -17.8125 L 20.578125 -30.109375 L 26.671875 -30.109375 L 26.671875 -29.59375 L 15.59375 -15.90625 L 27.828125 -0.515625 L 27.828125 0 L 21.09375 0 L 10.53125 -13 L 9.859375 -13 Z M 9.859375 0" stroke-linecap="round" />
</g>
		<g transform="matrix(1.33 0 0 1.33 -25.64 -74.49)"  >
<path style="stroke: none; stroke-width: 1; stroke-dasharray: none; stroke-linecap: butt; stroke-dashoffset: 0; stroke-linejoin: miter; stroke-miterlimit: 4; fill: rgb(255,255,255); fill-rule: nonzero; opacity: 1;" vector-effect="non-scaling-stroke"  transform=" translate(-6.14, 16.07)" d="M 6.125 -25.4375 C 5.09375 -25.4375 4.253906 -25.75 3.609375 -26.375 C 2.960938 -27 2.640625 -27.804688 2.640625 -28.796875 C 2.640625 -29.773438 2.960938 -30.578125 3.609375 -31.203125 C 4.253906 -31.828125 5.09375 -32.140625 6.125 -32.140625 C 6.800781 -32.140625 7.40625 -31.992188 7.9375 -31.703125 C 8.476562 -31.410156 8.894531 -31.015625 9.1875 -30.515625 C 9.488281 -30.015625 9.640625 -29.441406 9.640625 -28.796875 C 9.640625 -28.148438 9.488281 -27.570312 9.1875 -27.0625 C 8.894531 -26.5625 8.476562 -26.164062 7.9375 -25.875 C 7.40625 -25.582031 6.800781 -25.4375 6.125 -25.4375 Z M 8.984375 0 L 3.28125 0 L 3.28125 -22.71875 L 8.984375 -22.71875 Z M 8.984375 0" stroke-linecap="round" />
</g>
		<g transform="matrix(1.33 0 0 1.33 4.6 -68.18)"  >
<path style="stroke: none; stroke-width: 1; stroke-dasharray: none; stroke-linecap: butt; stroke-dashoffset: 0; stroke-linejoin: miter; stroke-miterlimit: 4; fill: rgb(255,255,255); fill-rule: nonzero; opacity: 1;" vector-effect="non-scaling-stroke"  transform=" translate(-16.63, 11.36)" d="M 12.1875 0 L 6.21875 0 L 0.828125 -22.71875 L 6.125 -22.71875 L 9.453125 -7.359375 L 9.890625 -7.359375 L 14.21875 -22.71875 L 19.15625 -22.71875 L 23.625 -7.359375 L 24.0625 -7.359375 L 27.28125 -22.71875 L 32.421875 -22.71875 L 27.09375 0 L 21.09375 0 L 16.78125 -15.46875 L 16.359375 -15.46875 Z M 12.1875 0" stroke-linecap="round" />
</g>
		<g transform="matrix(1.33 0 0 1.33 34.96 -74.49)"  >
<path style="stroke: none; stroke-width: 1; stroke-dasharray: none; stroke-linecap: butt; stroke-dashoffset: 0; stroke-linejoin: miter; stroke-miterlimit: 4; fill: rgb(255,255,255); fill-rule: nonzero; opacity: 1;" vector-effect="non-scaling-stroke"  transform=" translate(-6.14, 16.07)" d="M 6.125 -25.4375 C 5.09375 -25.4375 4.253906 -25.75 3.609375 -26.375 C 2.960938 -27 2.640625 -27.804688 2.640625 -28.796875 C 2.640625 -29.773438 2.960938 -30.578125 3.609375 -31.203125 C 4.253906 -31.828125 5.09375 -32.140625 6.125 -32.140625 C 6.800781 -32.140625 7.40625 -31.992188 7.9375 -31.703125 C 8.476562 -31.410156 8.894531 -31.015625 9.1875 -30.515625 C 9.488281 -30.015625 9.640625 -29.441406 9.640625 -28.796875 C 9.640625 -28.148438 9.488281 -27.570312 9.1875 -27.0625 C 8.894531 -26.5625 8.476562 -26.164062 7.9375 -25.875 C 7.40625 -25.582031 6.800781 -25.4375 6.125 -25.4375 Z M 8.984375 0 L 3.28125 0 L 3.28125 -22.71875 L 8.984375 -22.71875 Z M 8.984375 0" stroke-linecap="round" />
</g>
		<g transform="matrix(1.33 0 0 1.33 -50.46 -13.09)"  >
<path style="stroke: none; stroke-width: 1; stroke-dasharray: none; stroke-linecap: butt; stroke-dashoffset: 0; stroke-linejoin: miter; stroke-miterlimit: 4; fill: rgb(255,255,255); fill-rule: nonzero; opacity: 1;" vector-effect="non-scaling-stroke"  transform=" translate(-15.38, 15.05)" d="M 14.625 0.4375 C 12.113281 0.4375 9.941406 -0.132812 8.109375 -1.28125 C 6.273438 -2.425781 4.859375 -4.15625 3.859375 -6.46875 C 2.867188 -8.789062 2.375 -11.65625 2.375 -15.0625 C 2.375 -18.488281 2.96875 -21.359375 4.15625 -23.671875 C 5.351562 -25.992188 7.007812 -27.71875 9.125 -28.84375 C 11.25 -29.976562 13.710938 -30.546875 16.515625 -30.546875 C 19.398438 -30.546875 21.859375 -30.007812 23.890625 -28.9375 C 25.921875 -27.863281 27.351562 -26.269531 28.1875 -24.15625 L 23.828125 -21.53125 L 23.3125 -21.546875 C 22.695312 -22.890625 21.828125 -23.867188 20.703125 -24.484375 C 19.585938 -25.109375 18.191406 -25.421875 16.515625 -25.421875 C 13.921875 -25.421875 11.9375 -24.597656 10.5625 -22.953125 C 9.1875 -21.316406 8.5 -18.6875 8.5 -15.0625 C 8.5 -11.414062 9.140625 -8.769531 10.421875 -7.125 C 11.710938 -5.476562 13.613281 -4.65625 16.125 -4.65625 C 18.300781 -4.65625 19.898438 -5.140625 20.921875 -6.109375 C 21.953125 -7.085938 22.46875 -8.546875 22.46875 -10.484375 L 22.46875 -11.78125 L 15.34375 -11.78125 L 15.34375 -16.625 L 28.390625 -16.625 L 28.390625 0 L 22.703125 0 L 22.703125 -4.03125 L 22.265625 -4.09375 C 21.648438 -2.65625 20.710938 -1.539062 19.453125 -0.75 C 18.203125 0.0390625 16.59375 0.4375 14.625 0.4375 Z M 14.625 0.4375" stroke-linecap="round" />
</g>
		<g transform="matrix(1.33 0 0 1.33 -12.38 -8.14)"  >
<path style="stroke: none; stroke-width: 1; stroke-dasharray: none; stroke-linecap: butt; stroke-dashoffset: 0; stroke-linejoin: miter; stroke-miterlimit: 4; fill: rgb(255,255,255); fill-rule: nonzero; opacity: 1;" vector-effect="non-scaling-stroke"  transform=" translate(-12.53, 11.36)" d="M 22.453125 -10.078125 L 7.875 -10.03125 C 8.03125 -8.070312 8.585938 -6.644531 9.546875 -5.75 C 10.503906 -4.851562 11.8125 -4.40625 13.46875 -4.40625 C 14.769531 -4.40625 15.828125 -4.648438 16.640625 -5.140625 C 17.453125 -5.628906 18.101562 -6.367188 18.59375 -7.359375 L 19.03125 -7.359375 L 22.828125 -4.921875 C 22.085938 -3.328125 20.96875 -2.035156 19.46875 -1.046875 C 17.96875 -0.0546875 15.96875 0.4375 13.46875 0.4375 C 11.125 0.4375 9.09375 -0.0078125 7.375 -0.90625 C 5.664062 -1.800781 4.347656 -3.128906 3.421875 -4.890625 C 2.503906 -6.660156 2.046875 -8.8125 2.046875 -11.34375 C 2.046875 -13.925781 2.53125 -16.101562 3.5 -17.875 C 4.476562 -19.644531 5.796875 -20.96875 7.453125 -21.84375 C 9.117188 -22.71875 10.988281 -23.15625 13.0625 -23.15625 C 16.269531 -23.15625 18.726562 -22.300781 20.4375 -20.59375 C 22.15625 -18.894531 23.015625 -16.394531 23.015625 -13.09375 C 23.015625 -11.90625 22.972656 -10.976562 22.890625 -10.3125 Z M 17.546875 -13.765625 C 17.492188 -15.492188 17.09375 -16.75 16.34375 -17.53125 C 15.59375 -18.320312 14.5 -18.71875 13.0625 -18.71875 C 10.175781 -18.71875 8.476562 -17.066406 7.96875 -13.765625 Z M 17.546875 -13.765625" stroke-linecap="round" />
</g>
		<g transform="matrix(1.33 0 0 1.33 15.75 -11.44)"  >
<path style="stroke: none; stroke-width: 1; stroke-dasharray: none; stroke-linecap: butt; stroke-dashoffset: 0; stroke-linejoin: miter; stroke-miterlimit: 4; fill: rgb(255,255,255); fill-rule: nonzero; opacity: 1;" vector-effect="non-scaling-stroke"  transform=" translate(-8.92, 13.83)" d="M 15.671875 -5.421875 L 17.15625 -1.1875 C 16.539062 -0.6875 15.765625 -0.289062 14.828125 0 C 13.898438 0.289062 12.84375 0.4375 11.65625 0.4375 C 9.195312 0.4375 7.328125 -0.226562 6.046875 -1.5625 C 4.773438 -2.90625 4.140625 -4.859375 4.140625 -7.421875 L 4.140625 -18.1875 L 0.6875 -18.1875 L 0.6875 -22.71875 L 4.140625 -22.71875 L 4.140625 -27.171875 L 9.84375 -28.09375 L 9.84375 -22.71875 L 16.296875 -22.71875 L 16.296875 -18.1875 L 9.84375 -18.1875 L 9.84375 -7.828125 C 9.84375 -6.703125 10.078125 -5.878906 10.546875 -5.359375 C 11.015625 -4.847656 11.695312 -4.59375 12.59375 -4.59375 C 13.601562 -4.59375 14.488281 -4.867188 15.25 -5.421875 Z M 15.671875 -5.421875" stroke-linecap="round" />
</g>
		<g transform="matrix(1.33 0 0 1.33 44.21 -8.14)"  >
<path style="stroke: none; stroke-width: 1; stroke-dasharray: none; stroke-linecap: butt; stroke-dashoffset: 0; stroke-linejoin: miter; stroke-miterlimit: 4; fill: rgb(255,255,255); fill-rule: nonzero; opacity: 1;" vector-effect="non-scaling-stroke"  transform=" translate(-12.62, 11.36)" d="M 8.859375 0.4375 C 7.398438 0.4375 6.132812 0.171875 5.0625 -0.359375 C 3.988281 -0.898438 3.164062 -1.6875 2.59375 -2.71875 C 2.019531 -3.757812 1.734375 -5.007812 1.734375 -6.46875 C 1.734375 -7.8125 2.019531 -8.941406 2.59375 -9.859375 C 3.164062 -10.773438 4.054688 -11.523438 5.265625 -12.109375 C 6.484375 -12.691406 8.066406 -13.140625 10.015625 -13.453125 C 11.367188 -13.671875 12.398438 -13.910156 13.109375 -14.171875 C 13.816406 -14.429688 14.289062 -14.722656 14.53125 -15.046875 C 14.78125 -15.378906 14.90625 -15.800781 14.90625 -16.3125 C 14.90625 -17.039062 14.648438 -17.597656 14.140625 -17.984375 C 13.640625 -18.367188 12.800781 -18.5625 11.625 -18.5625 C 10.351562 -18.5625 9.144531 -18.28125 8 -17.71875 C 6.863281 -17.15625 5.878906 -16.410156 5.046875 -15.484375 L 4.640625 -15.484375 L 2.25 -19.09375 C 3.394531 -20.375 4.796875 -21.367188 6.453125 -22.078125 C 8.117188 -22.796875 9.9375 -23.15625 11.90625 -23.15625 C 14.914062 -23.15625 17.09375 -22.515625 18.4375 -21.234375 C 19.78125 -19.960938 20.453125 -18.148438 20.453125 -15.796875 L 20.453125 -5.9375 C 20.453125 -4.914062 20.898438 -4.40625 21.796875 -4.40625 C 22.140625 -4.40625 22.472656 -4.46875 22.796875 -4.59375 L 23.09375 -4.515625 L 23.5 -0.53125 C 23.1875 -0.332031 22.75 -0.164062 22.1875 -0.03125 C 21.625 0.101562 21.003906 0.171875 20.328125 0.171875 C 18.972656 0.171875 17.910156 -0.0859375 17.140625 -0.609375 C 16.378906 -1.140625 15.835938 -1.957031 15.515625 -3.0625 L 15.078125 -3.109375 C 13.960938 -0.742188 11.890625 0.4375 8.859375 0.4375 Z M 10.671875 -3.828125 C 11.984375 -3.828125 13.035156 -4.269531 13.828125 -5.15625 C 14.617188 -6.039062 15.015625 -7.273438 15.015625 -8.859375 L 15.015625 -11.171875 L 14.625 -11.25 C 14.28125 -10.96875 13.828125 -10.734375 13.265625 -10.546875 C 12.710938 -10.367188 11.914062 -10.191406 10.875 -10.015625 C 9.632812 -9.804688 8.742188 -9.453125 8.203125 -8.953125 C 7.660156 -8.453125 7.390625 -7.738281 7.390625 -6.8125 C 7.390625 -5.84375 7.675781 -5.101562 8.25 -4.59375 C 8.832031 -4.082031 9.640625 -3.828125 10.671875 -3.828125 Z M 10.671875 -3.828125" stroke-linecap="round" />
</g>
		<g transform="matrix(1.33 0 0 1.33 81.48 -8.14)"  >
<path style="stroke: none; stroke-width: 1; stroke-dasharray: none; stroke-linecap: butt; stroke-dashoffset: 0; stroke-linejoin: miter; stroke-miterlimit: 4; fill: rgb(255,255,255); fill-rule: nonzero; opacity: 1;" vector-effect="non-scaling-stroke"  transform=" translate(-16.63, 11.36)" d="M 12.1875 0 L 6.21875 0 L 0.828125 -22.71875 L 6.125 -22.71875 L 9.453125 -7.359375 L 9.890625 -7.359375 L 14.21875 -22.71875 L 19.15625 -22.71875 L 23.625 -7.359375 L 24.0625 -7.359375 L 27.28125 -22.71875 L 32.421875 -22.71875 L 27.09375 0 L 21.09375 0 L 16.78125 -15.46875 L 16.359375 -15.46875 Z M 12.1875 0" stroke-linecap="round" />
</g>
		<g transform="matrix(1.33 0 0 1.33 120.45 -8.14)"  >
<path style="stroke: none; stroke-width: 1; stroke-dasharray: none; stroke-linecap: butt; stroke-dashoffset: 0; stroke-linejoin: miter; stroke-miterlimit: 4; fill: rgb(255,255,255); fill-rule: nonzero; opacity: 1;" vector-effect="non-scaling-stroke"  transform=" translate(-12.62, 11.36)" d="M 8.859375 0.4375 C 7.398438 0.4375 6.132812 0.171875 5.0625 -0.359375 C 3.988281 -0.898438 3.164062 -1.6875 2.59375 -2.71875 C 2.019531 -3.757812 1.734375 -5.007812 1.734375 -6.46875 C 1.734375 -7.8125 2.019531 -8.941406 2.59375 -9.859375 C 3.164062 -10.773438 4.054688 -11.523438 5.265625 -12.109375 C 6.484375 -12.691406 8.066406 -13.140625 10.015625 -13.453125 C 11.367188 -13.671875 12.398438 -13.910156 13.109375 -14.171875 C 13.816406 -14.429688 14.289062 -14.722656 14.53125 -15.046875 C 14.78125 -15.378906 14.90625 -15.800781 14.90625 -16.3125 C 14.90625 -17.039062 14.648438 -17.597656 14.140625 -17.984375 C 13.640625 -18.367188 12.800781 -18.5625 11.625 -18.5625 C 10.351562 -18.5625 9.144531 -18.28125 8 -17.71875 C 6.863281 -17.15625 5.878906 -16.410156 5.046875 -15.484375 L 4.640625 -15.484375 L 2.25 -19.09375 C 3.394531 -20.375 4.796875 -21.367188 6.453125 -22.078125 C 8.117188 -22.796875 9.9375 -23.15625 11.90625 -23.15625 C 14.914062 -23.15625 17.09375 -22.515625 18.4375 -21.234375 C 19.78125 -19.960938 20.453125 -18.148438 20.453125 -15.796875 L 20.453125 -5.9375 C 20.453125 -4.914062 20.898438 -4.40625 21.796875 -4.40625 C 22.140625 -4.40625 22.472656 -4.46875 22.796875 -4.59375 L 23.09375 -4.515625 L 23.5 -0.53125 C 23.1875 -0.332031 22.75 -0.164062 22.1875 -0.03125 C 21.625 0.101562 21.003906 0.171875 20.328125 0.171875 C 18.972656 0.171875 17.910156 -0.0859375 17.140625 -0.609375 C 16.378906 -1.140625 15.835938 -1.957031 15.515625 -3.0625 L 15.078125 -3.109375 C 13.960938 -0.742188 11.890625 0.4375 8.859375 0.4375 Z M 10.671875 -3.828125 C 11.984375 -3.828125 13.035156 -4.269531 13.828125 -5.15625 C 14.617188 -6.039062 15.015625 -7.273438 15.015625 -8.859375 L 15.015625 -11.171875 L 14.625 -11.25 C 14.28125 -10.96875 13.828125 -10.734375 13.265625 -10.546875 C 12.710938 -10.367188 11.914062 -10.191406 10.875 -10.015625 C 9.632812 -9.804688 8.742188 -9.453125 8.203125 -8.953125 C 7.660156 -8.453125 7.390625 -7.738281 7.390625 -6.8125 C 7.390625 -5.84375 7.675781 -5.101562 8.25 -4.59375 C 8.832031 -4.082031 9.640625 -3.828125 10.671875 -3.828125 Z M 10.671875 -3.828125" stroke-linecap="round" />
</g>
		<g transform="matrix(1.33 0 0 1.33 151.82 -1.73)"  >
<path style="stroke: none; stroke-width: 1; stroke-dasharray: none; stroke-linecap: butt; stroke-dashoffset: 0; stroke-linejoin: miter; stroke-miterlimit: 4; fill: rgb(255,255,255); fill-rule: nonzero; opacity: 1;" vector-effect="non-scaling-stroke"  transform=" translate(-12.19, 6.54)" d="M 18.109375 -22.71875 L 23.921875 -22.71875 L 14.796875 1.421875 C 14.066406 3.367188 13.265625 4.9375 12.390625 6.125 C 11.515625 7.3125 10.484375 8.191406 9.296875 8.765625 C 8.109375 9.347656 6.6875 9.640625 5.03125 9.640625 C 4.050781 9.640625 3.164062 9.5625 2.375 9.40625 C 1.582031 9.257812 0.941406 9.0625 0.453125 8.8125 L 1.359375 4.203125 L 1.734375 4.078125 C 2.078125 4.253906 2.5 4.394531 3 4.5 C 3.507812 4.613281 4.035156 4.671875 4.578125 4.671875 C 5.492188 4.671875 6.253906 4.550781 6.859375 4.3125 C 7.472656 4.070312 7.992188 3.671875 8.421875 3.109375 C 8.847656 2.554688 9.226562 1.785156 9.5625 0.796875 L 0.5 -22.71875 L 6.46875 -22.71875 L 12.109375 -6.921875 L 12.59375 -6.921875 L 12.546875 -6.75 Z M 18.109375 -22.71875" stroke-linecap="round" />
</g>
		<g transform="matrix(1.33 0 0 1.33 181.84 -8.14)"  >
<path style="stroke: none; stroke-width: 1; stroke-dasharray: none; stroke-linecap: butt; stroke-dashoffset: 0; stroke-linejoin: miter; stroke-miterlimit: 4; fill: rgb(255,255,255); fill-rule: nonzero; opacity: 1;" vector-effect="non-scaling-stroke"  transform=" translate(-10.31, 11.36)" d="M 10.625 0.4375 C 9.070312 0.4375 7.648438 0.253906 6.359375 -0.109375 C 5.066406 -0.472656 3.960938 -0.972656 3.046875 -1.609375 C 2.140625 -2.253906 1.46875 -2.988281 1.03125 -3.8125 L 4.203125 -7.234375 L 4.640625 -7.234375 C 5.390625 -6.210938 6.28125 -5.445312 7.3125 -4.9375 C 8.34375 -4.4375 9.460938 -4.1875 10.671875 -4.1875 C 11.785156 -4.1875 12.625 -4.382812 13.1875 -4.78125 C 13.75 -5.175781 14.03125 -5.742188 14.03125 -6.484375 C 14.03125 -7.066406 13.828125 -7.550781 13.421875 -7.9375 C 13.015625 -8.332031 12.359375 -8.640625 11.453125 -8.859375 L 8.453125 -9.578125 C 6.191406 -10.109375 4.539062 -10.925781 3.5 -12.03125 C 2.46875 -13.144531 1.953125 -14.550781 1.953125 -16.25 C 1.953125 -17.664062 2.3125 -18.894531 3.03125 -19.9375 C 3.757812 -20.976562 4.773438 -21.773438 6.078125 -22.328125 C 7.390625 -22.878906 8.921875 -23.15625 10.671875 -23.15625 C 12.710938 -23.15625 14.40625 -22.859375 15.75 -22.265625 C 17.101562 -21.671875 18.15625 -20.882812 18.90625 -19.90625 L 15.859375 -16.609375 L 15.453125 -16.609375 C 14.816406 -17.316406 14.101562 -17.832031 13.3125 -18.15625 C 12.53125 -18.488281 11.648438 -18.65625 10.671875 -18.65625 C 8.421875 -18.65625 7.296875 -17.957031 7.296875 -16.5625 C 7.296875 -15.96875 7.503906 -15.484375 7.921875 -15.109375 C 8.335938 -14.742188 9.078125 -14.445312 10.140625 -14.21875 L 12.9375 -13.59375 C 15.238281 -13.101562 16.921875 -12.3125 17.984375 -11.21875 C 19.054688 -10.125 19.59375 -8.65625 19.59375 -6.8125 C 19.59375 -5.375 19.234375 -4.101562 18.515625 -3 C 17.804688 -1.90625 16.773438 -1.054688 15.421875 -0.453125 C 14.078125 0.140625 12.476562 0.4375 10.625 0.4375 Z M 10.625 0.4375" stroke-linecap="round" />
</g>
</g>
</g>
</svg>