<?xml version="1.0" encoding="UTF-8" standalone="no" ?>
<!DOCTYPE svg PUBLIC "-//W3C//DTD SVG 1.1//EN" "http://www.w3.org/Graphics/SVG/1.1/DTD/svg11.dtd">
<svg xmlns="http://www.w3.org/2000/svg" xmlns:xlink="http://www.w3.org/1999/xlink" version="1.1" width="1080" height="1080" viewBox="0 0 1080 1080" xml:space="preserve">
<desc>Created with Fabric.js 5.2.4</desc>
<defs>
</defs>
<g transform="matrix(1 0 0 1 540 540)" id="8fefbd39-1de1-4ad2-a88a-bb13f86304b8"  >
<rect style="stroke: none; stroke-width: 1; stroke-dasharray: none; stroke-linecap: butt; stroke-dashoffset: 0; stroke-linejoin: miter; stroke-miterlimit: 4; fill: rgb(255,255,255); fill-rule: nonzero; opacity: 1; visibility: hidden;" vector-effect="non-scaling-stroke"  x="-540" y="-540" rx="0" ry="0" width="1080" height="1080" />
</g>
<g transform="matrix(1 0 0 1 540 540)" id="e1e1a406-602e-414d-9565-7c73ffc843e2"  >
</g>
<g transform="matrix(44.05 0 0 44.05 537.72 539.67)" id="ddacb1ff-d160-42e3-87c4-18e845f1c21e"  >
<path style="stroke: rgb(0,0,0); stroke-opacity: 0; stroke-width: 0; stroke-dasharray: none; stroke-linecap: butt; stroke-dashoffset: 0; stroke-linejoin: miter; stroke-miterlimit: 4; fill: rgb(255,255,255); fill-rule: nonzero; opacity: 1;" vector-effect="non-scaling-stroke"  transform=" translate(-12, -12)" d="M 19 0 L 5 0 C 2.239 0 0 2.239 0 5 L 0 19 C 0 21.761 2.239 24 5 24 L 19 24 C 21.762 24 24 21.761 24 19 L 24 5 C 24 2.239 21.762 0 19 0 z M 16 7 L 14.076 7 C 13.461 7 13 7.252 13 7.889 L 13 9 L 16 9 L 15.762 12 L 13 12 L 13 20 L 10 20 L 10 12 L 8 12 L 8 9 L 10 9 L 10 7.077 C 10 5.055 11.064 4 13.461 4 L 16 4 L 16 7 z" stroke-linecap="round" />
</g>
</svg>